<svg xmlns="http://www.w3.org/2000/svg" width="60" height="60" fill="none" viewBox="0 0 60 60">
  <path fill="#484848" d="M8 15a2 2 0 00-2 2v5a2 2 0 002 2h9v6h25v-6h9a2 2 0 002-2v-5a2 2 0 00-2-2H8zM9 45h41v3a2 2 0 01-2 2H11a2 2 0 01-2-2v-3z"/>
  <path fill="#696969" d="M9 44h41v3a2 2 0 01-2 2H11a2 2 0 01-2-2v-3z"/>
  <path fill="#A6A6A6" d="M9 30h41v14a2 2 0 01-2 2H11a2 2 0 01-2-2V30z"/>
  <rect width="33" height="12" x="13" y="32" fill="#545454" rx="1"/>
  <path fill="#C4C4C4" d="M17 35a1 1 0 11-2 0 1 1 0 012 0zM18.5 38a1 1 0 11-2 0 1 1 0 012 0zM21.5 38a1 1 0 11-2 0 1 1 0 012 0zM20 41a1 1 0 11-2 0 1 1 0 012 0zM17 41a1 1 0 11-2 0 1 1 0 012 0zM41 41a1 1 0 11-2 0 1 1 0 012 0zM44 41a1 1 0 11-2 0 1 1 0 012 0zM24.5 38a1 1 0 11-2 0 1 1 0 012 0zM27.5 38a1 1 0 11-2 0 1 1 0 012 0zM30.5 38a1 1 0 11-2 0 1 1 0 012 0zM33.5 38a1 1 0 11-2 0 1 1 0 012 0zM36.5 38a1 1 0 11-2 0 1 1 0 012 0zM39.5 38a1 1 0 11-2 0 1 1 0 012 0zM42.5 38a1 1 0 11-2 0 1 1 0 012 0zM20 35a1 1 0 11-2 0 1 1 0 012 0zM23 35a1 1 0 11-2 0 1 1 0 012 0zM26 35a1 1 0 11-2 0 1 1 0 012 0zM29 35a1 1 0 11-2 0 1 1 0 012 0zM32 35a1 1 0 11-2 0 1 1 0 012 0zM35 35a1 1 0 11-2 0 1 1 0 012 0zM38 35a1 1 0 11-2 0 1 1 0 012 0zM41 35a1 1 0 11-2 0 1 1 0 012 0zM44 35a1 1 0 11-2 0 1 1 0 012 0zM21 41a1 1 0 011-1h15a1 1 0 110 2H22a1 1 0 01-1-1z"/>
  <path fill="#F5F5F5" d="M14 10h31v10H14z"/>
  <path fill="#C4C4C4" fill-rule="evenodd" d="M23.485 20c.113.15.231.297.355.438l-3.532 3.533a12.495 12.495 0 01-1.62-2.198L21.743 20H11a2 2 0 00-2 2v8h41v-8a2 2 0 00-2-2H37.294l3.031 1.75A12.5 12.5 0 0129.513 28h-.02c.165 0 .33-.003.492-.01v-5.006c.325-.022.643-.064.955-.125l1.296 4.837c.075-.016.15-.034.224-.052l.536-.144c.069-.02.137-.04.206-.062l-1.296-4.837a7.46 7.46 0 00.889-.369l2.504 4.337c.076-.04.153-.082.229-.124l.395-.228c.081-.049.161-.098.241-.149l-2.504-4.337c.267-.179.522-.375.763-.586l3.54 3.54c.122-.112.24-.226.358-.343l.007-.007c.116-.117.23-.236.343-.357l-3.54-3.54c.123-.141.242-.287.355-.438h-1.31c-.147.153-.3.298-.462.436l-.034.03a6.535 6.535 0 01-2.034 1.166c-.312.11-.634.197-.966.258l-.044.008a6.532 6.532 0 01-3.959-.534A6.488 6.488 0 0124.795 20h-1.31zm-.674 6.06a12.504 12.504 0 01-1.797-1.382l3.533-3.533c.241.211.496.407.763.586l-2.499 4.329zm2.96 1.37a12.492 12.492 0 01-2.094-.87l2.499-4.328c.286.141.583.265.889.369l-1.294 4.83zm3.214.56a12.504 12.504 0 01-2.248-.3l1.294-4.83c.312.06.63.102.954.124v5.005z" clip-rule="evenodd"/>
  <path fill="#C4C4C4" d="M5 19a1 1 0 011-1h47a1 1 0 011 1v1a1 1 0 01-1 1v-2H6v2a1 1 0 01-1-1v-1z"/>
</svg>
