<svg xmlns="http://www.w3.org/2000/svg" width="60" height="60" fill="none" viewBox="0 0 60 60">
  <path fill="#484848" d="M8 18a2 2 0 00-2 2v5a2 2 0 002 2h9v6h25v-6h9a2 2 0 002-2v-5a2 2 0 00-2-2H8zM9 48h41v3a2 2 0 01-2 2H11a2 2 0 01-2-2v-3z"/>
  <path fill="#696969" d="M9 47h41v3a2 2 0 01-2 2H11a2 2 0 01-2-2v-3z"/>
  <path fill="#A6A6A6" d="M9 33h41v14a2 2 0 01-2 2H11a2 2 0 01-2-2V33z"/>
  <rect width="33" height="12" x="13" y="35" fill="#545454" rx="1"/>
  <path fill="#C4C4C4" d="M17 38a1 1 0 11-2 0 1 1 0 012 0zM18.5 41a1 1 0 11-2 0 1 1 0 012 0zM21.5 41a1 1 0 11-2 0 1 1 0 012 0zM20 44a1 1 0 11-2 0 1 1 0 012 0zM17 44a1 1 0 11-2 0 1 1 0 012 0zM41 44a1 1 0 11-2 0 1 1 0 012 0zM44 44a1 1 0 11-2 0 1 1 0 012 0zM24.5 41a1 1 0 11-2 0 1 1 0 012 0zM27.5 41a1 1 0 11-2 0 1 1 0 012 0zM30.5 41a1 1 0 11-2 0 1 1 0 012 0zM33.5 41a1 1 0 11-2 0 1 1 0 012 0zM36.5 41a1 1 0 11-2 0 1 1 0 012 0zM39.5 41a1 1 0 11-2 0 1 1 0 012 0zM42.5 41a1 1 0 11-2 0 1 1 0 012 0zM20 38a1 1 0 11-2 0 1 1 0 012 0zM23 38a1 1 0 11-2 0 1 1 0 012 0zM26 38a1 1 0 11-2 0 1 1 0 012 0zM29 38a1 1 0 11-2 0 1 1 0 012 0zM32 38a1 1 0 11-2 0 1 1 0 012 0zM35 38a1 1 0 11-2 0 1 1 0 012 0zM38 38a1 1 0 11-2 0 1 1 0 012 0zM41 38a1 1 0 11-2 0 1 1 0 012 0zM44 38a1 1 0 11-2 0 1 1 0 012 0zM21 44a1 1 0 011-1h15a1 1 0 110 2H22a1 1 0 01-1-1z"/>
  <path fill="#F5F5F5" d="M14 13h31v10H14z"/>
  <path fill="#C4C4C4" fill-rule="evenodd" d="M20.315 26.978l3.54-3.54A7.513 7.513 0 0123.5 23h1.31a6.533 6.533 0 002.53 1.632A6.442 6.442 0 0029.5 25a6.62 6.62 0 001.195-.11 6.442 6.442 0 002.479-1.027A6.523 6.523 0 0034.19 23h1.31c-.112.15-.231.297-.355.438l3.54 3.54a12.496 12.496 0 001.64-2.228L37.295 23H48a2 2 0 012 2v8H9v-8a2 2 0 012-2h10.743l-3.055 1.773a12.492 12.492 0 001.627 2.205zm14.997 2.589l-2.502-4.335a7.461 7.461 0 01-.89.369l1.296 4.834a12.5 12.5 0 002.096-.868zm-3.062 1.127l-1.296-4.835c-.311.061-.63.103-.954.125v5.006c.76-.03 1.512-.13 2.25-.296zM29 30.99v-5.006a7.503 7.503 0 01-.954-.125l-1.296 4.835c.738.166 1.49.266 2.25.296zm-3.216-.555l1.296-4.834a7.461 7.461 0 01-.89-.369l-2.502 4.335c.673.353 1.375.643 2.096.868zm-2.962-1.368l2.503-4.336a7.528 7.528 0 01-.763-.586l-3.54 3.54c.555.513 1.157.976 1.8 1.382zm15.156-1.382l-3.54-3.54a7.528 7.528 0 01-.763.586l2.503 4.336a12.503 12.503 0 001.8-1.382z" clip-rule="evenodd"/>
  <path fill="#C4C4C4" d="M5 22a1 1 0 011-1h47a1 1 0 011 1v1a1 1 0 01-1 1v-2H6v2a1 1 0 01-1-1v-1z"/>
</svg>
